# Rhino

mtllib new50ShadesOfAmerica4.mtl
usemtl Plaster
v -65.143974304199219 -39.858798980712891 -0.34641015529632568
v -65.143974304199219 -39.858798980712891 -2.2514102458953857
v -65.143974304199219 -28.437370300292969 -0.34641015529632568
v -65.143974304199219 -28.437370300292969 -2.2514102458953857
v -65.143974304199219 -17.015941619873047 -0.34641015529632568
v -65.143974304199219 -17.015941619873047 -2.2514102458953857
v -65.143974304199219 -5.594512939453125 -0.34641015529632568
v -65.143974304199219 -5.594512939453125 -2.2514102458953857
v -65.143974304199219 5.8269157409667969 -0.34641015529632568
v -65.143974304199219 5.8269157409667969 -2.2514102458953857
v -65.143974304199219 17.248344421386719 -0.34641015529632568
v -65.143974304199219 17.248344421386719 -2.2514102458953857
v -65.143974304199219 28.669773101806641 -0.34641015529632568
v -65.143974304199219 28.669773101806641 -2.2514102458953857
v -65.143974304199219 40.091201782226563 -0.34641015529632568
v -65.143974304199219 40.091201782226563 -2.2514102458953857
vt 0 0
vt 0 1
vt 0.1428571492433548 0
vt 0.1428571492433548 1
vt 0.28571429848670959 0
vt 0.28571429848670959 1
vt 0.4285714328289032 0
vt 0.4285714328289032 1
vt 0.57142859697341919 0
vt 0.57142859697341919 1
vt 0.71428573131561279 0
vt 0.71428573131561279 1
vt 0.8571428656578064 0
vt 0.8571428656578064 1
vt 1 0
vt 1 1
vn -1 0 0
vn -1 0 0
vn -1 0 0
vn -1 0 0
vn -1 0 0
vn -1 0 0
vn -1 0 0
vn -1 0 0
vn -1 0 0
vn -1 0 0
vn -1 0 0
vn -1 0 0
vn -1 0 0
vn -1 0 0
vn -1 0 0
vn -1 0 0
f 4/4/4 2/2/2 1/1/1 3/3/3
f 6/6/6 4/4/4 3/3/3 5/5/5
f 8/8/8 6/6/6 5/5/5 7/7/7
f 10/10/10 8/8/8 7/7/7 9/9/9
f 12/12/12 10/10/10 9/9/9 11/11/11
f 14/14/14 12/12/12 11/11/11 13/13/13
f 16/16/16 14/14/14 13/13/13 15/15/15
usemtl Plaster
v 64.856025695800781 -39.858798980712891 -0.34641015529632568
v 64.856025695800781 -39.858798980712891 -2.2514102458953857
v 64.856025695800781 -28.437370300292969 -0.34641015529632568
v 64.856025695800781 -28.437370300292969 -2.2514102458953857
v 64.856025695800781 -17.015941619873047 -0.34641015529632568
v 64.856025695800781 -17.015941619873047 -2.2514102458953857
v 64.856025695800781 -5.594512939453125 -0.34641015529632568
v 64.856025695800781 -5.594512939453125 -2.2514102458953857
v 64.856025695800781 5.8269157409667969 -0.34641015529632568
v 64.856025695800781 5.8269157409667969 -2.2514102458953857
v 64.856025695800781 17.248344421386719 -0.34641015529632568
v 64.856025695800781 17.248344421386719 -2.2514102458953857
v 64.856025695800781 28.669773101806641 -0.34641015529632568
v 64.856025695800781 28.669773101806641 -2.2514102458953857
v 64.856025695800781 40.091201782226563 -0.34641015529632568
v 64.856025695800781 40.091201782226563 -2.2514102458953857
vt 0 0
vt 0 1
vt 0.1428571492433548 0
vt 0.1428571492433548 1
vt 0.28571429848670959 0
vt 0.28571429848670959 1
vt 0.4285714328289032 0
vt 0.4285714328289032 1
vt 0.57142859697341919 0
vt 0.57142859697341919 1
vt 0.71428573131561279 0
vt 0.71428573131561279 1
vt 0.8571428656578064 0
vt 0.8571428656578064 1
vt 1 0
vt 1 1
vn 1 0 0
vn 1 0 0
vn 1 0 0
vn 1 0 0
vn 1 0 0
vn 1 0 0
vn 1 0 0
vn 1 0 0
vn 1 0 0
vn 1 0 0
vn 1 0 0
vn 1 0 0
vn 1 0 0
vn 1 0 0
vn 1 0 0
vn 1 0 0
f 20/20/20 19/19/19 17/17/17 18/18/18
f 22/22/22 21/21/21 19/19/19 20/20/20
f 24/24/24 23/23/23 21/21/21 22/22/22
f 26/26/26 25/25/25 23/23/23 24/24/24
f 28/28/28 27/27/27 25/25/25 26/26/26
f 30/30/30 29/29/29 27/27/27 28/28/28
f 32/32/32 31/31/31 29/29/29 30/30/30
usemtl Plaster
v 64.856025695800781 -39.858798980712891 -2.2514102458953857
v 54.022689819335938 -39.858798980712891 -2.2514102458953857
v 43.189357757568359 -39.858798980712891 -2.2514102458953857
v 32.356021881103516 -39.858798980712891 -2.2514102458953857
v 21.522689819335938 -39.858798980712891 -2.2514102458953857
v 10.689355850219727 -39.858798980712891 -2.2514102458953857
v -0.14397740364074707 -39.858798980712891 -2.2514102458953857
v -10.977311134338379 -39.858798980712891 -2.2514102458953857
v -21.810644149780273 -39.858798980712891 -2.2514102458953857
v -32.643978118896484 -39.858798980712891 -2.2514102458953857
v -43.477310180664063 -39.858798980712891 -2.2514102458953857
v -54.310642242431641 -39.858798980712891 -2.2514102458953857
v -65.143974304199219 -39.858798980712891 -2.2514102458953857
v 64.856025695800781 -39.858798980712891 -0.34641015529632568
v 54.022689819335938 -39.858798980712891 -0.34641015529632568
v 43.189357757568359 -39.858798980712891 -0.34641015529632568
v 32.356021881103516 -39.858798980712891 -0.34641015529632568
v 21.522689819335938 -39.858798980712891 -0.34641015529632568
v 10.689355850219727 -39.858798980712891 -0.34641015529632568
v -0.14397740364074707 -39.858798980712891 -0.34641015529632568
v -10.977311134338379 -39.858798980712891 -0.34641015529632568
v -21.810644149780273 -39.858798980712891 -0.34641015529632568
v -32.643978118896484 -39.858798980712891 -0.34641015529632568
v -43.477310180664063 -39.858798980712891 -0.34641015529632568
v -54.310642242431641 -39.858798980712891 -0.34641015529632568
v -65.143974304199219 -39.858798980712891 -0.34641015529632568
vt 0 0
vt 0 0.083333335816860199
vt 0 0.1666666716337204
vt 0 0.25
vt 0 0.3333333432674408
vt 0 0.4166666567325592
vt 0 0.5
vt 0 0.58333331346511841
vt 0 0.66666668653488159
vt 0 0.75
vt 0 0.83333331346511841
vt 0 0.91666668653488159
vt 0 1
vt 1 0
vt 1 0.083333335816860199
vt 1 0.1666666716337204
vt 1 0.25
vt 1 0.3333333432674408
vt 1 0.4166666567325592
vt 1 0.5
vt 1 0.58333331346511841
vt 1 0.66666668653488159
vt 1 0.75
vt 1 0.83333331346511841
vt 1 0.91666668653488159
vt 1 1
vn 0 -1 0
vn 0 -1 0
vn 0 -1 0
vn 0 -1 0
vn 0 -1 0
vn 0 -1 0
vn 0 -1 0
vn 0 -1 0
vn 0 -1 0
vn 0 -1 0
vn 0 -1 0
vn 0 -1 0
vn 0 -1 0
vn 0 -1 0
vn 0 -1 0
vn 0 -1 0
vn 0 -1 0
vn 0 -1 0
vn 0 -1 0
vn 0 -1 0
vn 0 -1 0
vn 0 -1 0
vn 0 -1 0
vn 0 -1 0
vn 0 -1 0
vn 0 -1 0
f 47/47/47 34/34/34 33/33/33 46/46/46
f 48/48/48 35/35/35 34/34/34 47/47/47
f 49/49/49 36/36/36 35/35/35 48/48/48
f 50/50/50 37/37/37 36/36/36 49/49/49
f 51/51/51 38/38/38 37/37/37 50/50/50
f 52/52/52 39/39/39 38/38/38 51/51/51
f 53/53/53 40/40/40 39/39/39 52/52/52
f 54/54/54 41/41/41 40/40/40 53/53/53
f 55/55/55 42/42/42 41/41/41 54/54/54
f 56/56/56 43/43/43 42/42/42 55/55/55
f 57/57/57 44/44/44 43/43/43 56/56/56
f 58/58/58 45/45/45 44/44/44 57/57/57
usemtl Plaster
v 64.856025695800781 40.091201782226563 -2.2514102458953857
v -65.143974304199219 40.091201782226563 -2.2514102458953857
v 64.856025695800781 -39.858798980712891 -2.2514102458953857
v -65.143974304199219 -39.858798980712891 -2.2514102458953857
vt 0 0
vt 0 1
vt 1 0
vt 1 1
vn 0 0 -1
vn 0 0 -1
vn 0 0 -1
vn 0 0 -1
f 62/62/62 60/60/60 59/59/59 61/61/61
usemtl Plaster
v 64.856025695800781 40.091201782226563 -0.34641015529632568
v 54.022689819335938 40.091201782226563 -0.34641015529632568
v 43.189357757568359 40.091201782226563 -0.34641015529632568
v 32.356021881103516 40.091201782226563 -0.34641015529632568
v 21.522689819335938 40.091201782226563 -0.34641015529632568
v 10.689355850219727 40.091201782226563 -0.34641015529632568
v -0.14397740364074707 40.091201782226563 -0.34641015529632568
v -10.977311134338379 40.091201782226563 -0.34641015529632568
v -21.810644149780273 40.091201782226563 -0.34641015529632568
v -32.643978118896484 40.091201782226563 -0.34641015529632568
v -43.477310180664063 40.091201782226563 -0.34641015529632568
v -54.310642242431641 40.091201782226563 -0.34641015529632568
v -65.143974304199219 40.091201782226563 -0.34641015529632568
v 64.856025695800781 40.091201782226563 -2.2514102458953857
v 54.022689819335938 40.091201782226563 -2.2514102458953857
v 43.189357757568359 40.091201782226563 -2.2514102458953857
v 32.356021881103516 40.091201782226563 -2.2514102458953857
v 21.522689819335938 40.091201782226563 -2.2514102458953857
v 10.689355850219727 40.091201782226563 -2.2514102458953857
v -0.14397740364074707 40.091201782226563 -2.2514102458953857
v -10.977311134338379 40.091201782226563 -2.2514102458953857
v -21.810644149780273 40.091201782226563 -2.2514102458953857
v -32.643978118896484 40.091201782226563 -2.2514102458953857
v -43.477310180664063 40.091201782226563 -2.2514102458953857
v -54.310642242431641 40.091201782226563 -2.2514102458953857
v -65.143974304199219 40.091201782226563 -2.2514102458953857
vt 0 0
vt 0 0.083333335816860199
vt 0 0.1666666716337204
vt 0 0.25
vt 0 0.3333333432674408
vt 0 0.4166666567325592
vt 0 0.5
vt 0 0.58333331346511841
vt 0 0.66666668653488159
vt 0 0.75
vt 0 0.83333331346511841
vt 0 0.91666668653488159
vt 0 1
vt 1 0
vt 1 0.083333335816860199
vt 1 0.1666666716337204
vt 1 0.25
vt 1 0.3333333432674408
vt 1 0.4166666567325592
vt 1 0.5
vt 1 0.58333331346511841
vt 1 0.66666668653488159
vt 1 0.75
vt 1 0.83333331346511841
vt 1 0.91666668653488159
vt 1 1
vn 0 1 0
vn 0 1 0
vn 0 1 0
vn 0 1 0
vn 0 1 0
vn 0 1 0
vn 0 1 0
vn 0 1 0
vn 0 1 0
vn 0 1 0
vn 0 1 0
vn 0 1 0
vn 0 1 0
vn 0 1 0
vn 0 1 0
vn 0 1 0
vn 0 1 0
vn 0 1 0
vn 0 1 0
vn 0 1 0
vn 0 1 0
vn 0 1 0
vn 0 1 0
vn 0 1 0
vn 0 1 0
vn 0 1 0
f 77/77/77 64/64/64 63/63/63 76/76/76
f 78/78/78 65/65/65 64/64/64 77/77/77
f 79/79/79 66/66/66 65/65/65 78/78/78
f 80/80/80 67/67/67 66/66/66 79/79/79
f 81/81/81 68/68/68 67/67/67 80/80/80
f 82/82/82 69/69/69 68/68/68 81/81/81
f 83/83/83 70/70/70 69/69/69 82/82/82
f 84/84/84 71/71/71 70/70/70 83/83/83
f 85/85/85 72/72/72 71/71/71 84/84/84
f 86/86/86 73/73/73 72/72/72 85/85/85
f 87/87/87 74/74/74 73/73/73 86/86/86
f 88/88/88 75/75/75 74/74/74 87/87/87
usemtl Plaster
v 64.856025695800781 -39.858798980712891 -0.34641015529632568
v -65.143974304199219 -39.858798980712891 -0.34641015529632568
v 64.856025695800781 40.091201782226563 -0.34641015529632568
v -65.143974304199219 40.091201782226563 -0.34641015529632568
vt 0 0
vt 0 1
vt 1 0
vt 1 1
vn 0 0 1
vn 0 0 1
vn 0 0 1
vn 0 0 1
f 92/92/92 90/90/90 89/89/89 91/91/91
